<?xml version="1.0" standalone="no"?><!DOCTYPE svg PUBLIC "-//W3C//DTD SVG 1.1//EN" "http://www.w3.org/Graphics/SVG/1.1/DTD/svg11.dtd"><svg t="1670865176875" class="icon" viewBox="0 0 1026 1024" version="1.1" xmlns="http://www.w3.org/2000/svg" p-id="23996" xmlns:xlink="http://www.w3.org/1999/xlink" width="200.390625" height="200"><path d="M194.873469 894.432653c-5.746939 0-12.016327-2.089796-16.718367-6.791837-9.404082-9.404082-9.404082-24.032653 0-33.436734L266.44898 765.910204c9.404082-9.404082 24.032653-9.404082 33.436734 0 9.404082 9.404082 9.404082 24.032653 0 33.436735l-88.293877 88.293877c-4.702041 4.179592-10.44898 6.791837-16.718368 6.791837zM833.828571 894.432653c-5.746939 0-12.016327-2.089796-16.718367-6.791837L728.816327 799.346939c-9.404082-9.404082-9.404082-24.032653 0-33.436735s24.032653-9.404082 33.436734 0l88.293878 88.293878c9.404082 9.404082 9.404082 24.032653 0 33.436734-4.179592 4.179592-10.44898 6.791837-16.718368 6.791837z" fill="#AF8015" p-id="23997"></path><path d="M514.612245 894.432653c-46.497959 0-91.428571-8.881633-133.746939-27.167347-40.75102-17.240816-77.322449-41.795918-109.191837-73.665306s-55.902041-67.918367-73.142857-108.669388c-17.763265-42.318367-27.167347-87.24898-27.167347-133.746939S180.767347 460.277551 198.530612 417.959184c17.240816-40.75102 41.795918-77.322449 73.665306-109.191837s67.918367-55.902041 108.669388-73.665306c42.318367-17.763265 87.24898-27.167347 133.746939-27.167347s91.428571 8.881633 133.746939 27.167347c40.75102 17.240816 77.322449 41.795918 109.191836 73.665306s55.902041 68.440816 73.142858 109.191837c17.763265 42.318367 27.167347 87.24898 27.167346 133.746938s-8.881633 91.428571-27.167346 133.746939c-17.240816 40.75102-41.795918 77.322449-73.665307 109.191837s-67.918367 55.379592-109.191836 72.620408c-42.318367 18.285714-86.726531 27.167347-133.22449 27.167347z" fill="#F2CB51" p-id="23998"></path><path d="M514.612245 833.828571c-38.138776 0-75.232653-7.314286-109.714286-21.942857-33.436735-14.106122-63.738776-34.481633-89.861224-60.604081s-46.497959-55.902041-60.604082-89.861225c-14.628571-35.004082-21.942857-71.57551-21.942857-109.714286 0-38.138776 7.314286-75.232653 21.942857-109.714285 14.106122-33.436735 34.481633-63.738776 60.604082-89.861225S370.938776 305.632653 404.897959 291.526531c35.004082-14.628571 71.57551-21.942857 109.714286-21.942858 38.138776 0 75.232653 7.314286 109.714286 21.942858 33.436735 14.106122 63.738776 34.481633 89.861224 60.604081s46.497959 55.902041 60.604082 89.861225c14.628571 35.004082 21.942857 71.57551 21.942857 109.714285 0 38.138776-7.314286 75.232653-21.942857 109.714286-14.106122 33.436735-34.481633 63.738776-60.604082 89.861225s-55.902041 46.497959-89.861224 60.604081c-34.481633 14.106122-71.57551 21.942857-109.714286 21.942857z" fill="#FFF4D7" p-id="23999"></path><path d="M857.861224 353.697959c-6.269388 0-12.016327-2.612245-16.718367-6.791837l-146.808163-146.808163c-9.404082-9.404082-9.404082-24.032653 0-33.436735 49.632653-49.632653 130.089796-49.632653 179.722449 0s49.632653 130.089796 0 179.722449c-4.179592 4.702041-9.926531 7.314286-16.195919 7.314286zM171.363265 353.697959c-6.269388 0-12.016327-2.612245-16.718367-6.791837-49.632653-49.632653-49.632653-130.089796 0-179.722449s130.089796-49.632653 179.722449 0c9.404082 9.404082 9.404082 24.032653 0 33.436735l-146.285714 146.285714c-4.702041 4.179592-10.44898 6.791837-16.718368 6.791837z" fill="#E5404F" p-id="24000"></path><path d="M517.22449 574.693878H344.816327c-13.061224 0-23.510204-10.44898-23.510205-23.510205s10.44898-23.510204 23.510205-23.510204h172.408163c13.061224 0 23.510204 10.44898 23.510204 23.510204s-10.971429 23.510204-23.510204 23.510205z" fill="#AA1D32" p-id="24001"></path><path d="M517.22449 574.693878c-13.061224 0-23.510204-10.44898-23.510204-23.510205V330.187755c0-13.061224 10.44898-23.510204 23.510204-23.510204s23.510204 10.44898 23.510204 23.510204v220.995918c0 13.061224-10.971429 23.510204-23.510204 23.510205z" fill="#E5404F" p-id="24002"></path></svg>