<?xml version="1.0" standalone="no"?><!DOCTYPE svg PUBLIC "-//W3C//DTD SVG 1.1//EN" "http://www.w3.org/Graphics/SVG/1.1/DTD/svg11.dtd"><svg t="1670832323816" class="icon" viewBox="0 0 1024 1024" version="1.1" xmlns="http://www.w3.org/2000/svg" p-id="8887" xmlns:xlink="http://www.w3.org/1999/xlink" width="200" height="200"><path d="M451.75 246.52c0-60.98 49.43-110.41 110.41-110.41s110.41 49.43 110.41 110.41c0 41.65-23.08 77.89-57.14 96.69-42.98-18.99-91.69-30.77-143.59-33.31-12.62-17.95-20.09-39.77-20.09-63.38z" fill="#FFD600" p-id="8888"></path><path d="M857.31 674.15c-25.09-2.38-43.11-22-43.82-47.7-0.23-7.79 1.68-17.82 9.59-27.97-9.61-1.69-17.88-1.48-21.84 0.63-9.99 5.32-22.41 1.58-27.76-8.43-5.34-9.99-1.56-22.41 8.43-27.75 22.43-11.96 58.08-6.18 85.2 7.46 29.19-10.35 65.4-14.39 82.21-4.69 9.81 5.67 13.74 18.48 8.08 28.29-5.67 9.82-17.66 13.45-27.45 7.78-3.67-1.2-13.89-0.87-25.93 1.24 5.93 10.66 7.85 22.16 5.34 33.54-4.98 22.55-24.39 37.83-47.15 37.83-1.63 0.01-3.25-0.06-4.9-0.23z m-2.83-48.84c0.05 1.83 0.21 7.39 6.72 8.01 2.46 0.24 6.9-0.17 8.09-5.61 0.68-3.09-2.14-7.11-5.83-10.65-6.89 4.3-8.84 7.62-8.98 8.25z" fill="#313FA0" p-id="8889"></path><path d="M524.62 199.51h18.37l10.12 18.76c5.07 9.37 8.14 15.34 9.22 17.9 1.43-3.76 3.37-7.79 5.81-12.09l13.81-24.58h17.66l-21 36.67h28.66v12.54h-37.25v16.11h37.25v12.45h-37.25v30.26h-16.11v-30.26h-36.89v-12.45h36.89v-16.11h-36.89v-12.54h28.47l-20.87-36.66z" fill="#FFFFFF" p-id="8890"></path><path d="M91.6 508.76h12.69c10.88 0 20.89-6.33 25.13-16.35 23.07-54.53 67.65-101.23 125.75-133.82 8.3-4.66 14.08-12.96 14.57-22.47 1.89-36.65-10.61-76.47-17.79-95.96-1.98-5.37 3.16-10.73 8.61-9 36.65 11.58 68.4 45.96 89.11 73.72 6.43 8.61 17.07 12.67 27.65 10.81 23.62-4.15 48.15-6.38 73.35-6.38 187.11 0 338.79 120.19 338.79 268.44 0 81.86-46.28 155.13-119.21 204.37-8.73 5.9-13.04 16.49-11.38 26.9l7.49 46.9c2.68 16.77-10.28 31.95-27.26 31.95h-56.77c-13.56 0-25.12-9.86-27.26-23.25l-0.29-1.81c-2.42-15.15-16.68-25.37-31.79-22.76-23.3 4.02-47.5 6.15-72.32 6.15-24.83 0-49.02-2.13-72.32-6.15-15.11-2.61-29.38 7.61-31.79 22.76l-0.29 1.81c-2.14 13.39-13.69 23.25-27.26 23.25h-56.77c-16.98 0-29.93-15.19-27.26-31.95l7.42-46.46c1.69-10.59-2.6-21.44-11.48-27.45-46.16-31.21-81.61-72.05-101.38-118.62-4.29-10.11-14.24-16.62-25.23-16.62H91.6c-15.24 0-27.6-12.36-27.6-27.6v-82.8c0-15.25 12.36-27.61 27.6-27.61z" fill="#8C9EFF" p-id="8891"></path><path d="M222.07 542.74c11.32 0 20.51-9.18 20.51-20.51 0-6.85 5.58-12.42 12.43-12.42s12.43 5.57 12.43 12.42c0 11.33 9.19 20.51 20.51 20.51s20.51-9.18 20.51-20.51c0-29.47-23.98-53.44-53.45-53.44s-53.45 23.97-53.45 53.44c0 11.33 9.18 20.51 20.51 20.51z" fill="#FFFFFF" p-id="8892"></path></svg>