<?xml version="1.0" standalone="no"?><!DOCTYPE svg PUBLIC "-//W3C//DTD SVG 1.1//EN" "http://www.w3.org/Graphics/SVG/1.1/DTD/svg11.dtd"><svg t="1670782139895" class="icon" viewBox="0 0 1024 1024" version="1.1" xmlns="http://www.w3.org/2000/svg" p-id="23170" xmlns:xlink="http://www.w3.org/1999/xlink" width="200" height="200"><path d="M818.176 515.072v38.912l-91.136-18.432 10.24-6.656v-13.312c0-11.264 4.608-21.504 11.776-28.672 7.168-7.168 17.408-11.776 28.672-11.776 22.528-0.512 40.448 17.408 40.448 39.936zM656.384 425.472v95.232l-78.848-15.872c-0.512 0-1.536-0.512-2.048-0.512v0.512-79.36c0-11.264 4.608-21.504 11.776-28.672 7.168-7.168 17.408-11.776 28.672-11.776 22.528 0 40.448 18.432 40.448 40.448zM449.536 454.656V504.32c-0.512 0-1.536 0.512-2.048 0.512l-82.432 16.896 3.072-6.144V454.656c0-22.016 18.432-40.448 40.448-40.448 11.264 0 21.504 4.608 28.672 11.776 7.68 7.68 12.288 17.92 12.288 28.672zM287.232 515.584l7.68 19.968-88.576 17.92V501.76c0-22.528 18.432-40.448 40.448-40.448 11.264 0 21.504 4.608 28.672 11.776 7.168 7.168 11.776 17.408 11.776 28.672v13.824z" fill="#2F2960" p-id="23171"></path><path d="M887.296 504.32l-54.272-34.304-245.76-156.16c3.584-63.488 5.632-105.984 5.632-107.008v-0.512c0-43.008-33.28-121.856-80.384-121.856-47.616 0-80.384 79.36-80.384 121.856v0.512c0 1.024 2.048 43.52 5.632 107.008L189.44 471.552l-51.712 32.768c-6.144 4.608-12.288 13.824-12.288 22.528v79.36c0 22.016 17.92 40.448 40.448 40.448h0.512c22.016 0 40.448-17.92 40.448-40.448V501.76c0-22.528 18.432-40.448 40.448-40.448 11.264 0 21.504 4.608 28.672 11.776 7.168 7.168 11.776 17.408 11.776 28.672v13.312c0 7.68 2.048 14.336 5.632 20.48 7.168 11.776 19.968 19.968 34.816 19.968 11.264 0 21.504-4.608 28.672-11.776 6.144-6.144 10.24-14.336 11.776-23.04 0.512-1.536 0.512-3.584 0.512-5.12V454.656c0-22.016 18.432-40.448 40.448-40.448 11.264 0 21.504 4.608 28.672 11.776 7.168 7.168 11.776 17.408 11.776 28.672v50.176c1.024 12.8 2.048 25.6 2.56 38.4 8.192 25.6 31.744 44.544 60.416 44.544 28.16 0 52.224-18.432 60.416-44.032l3.072-38.4V425.472c0-11.264 4.608-21.504 11.776-28.672 7.168-7.168 17.408-11.776 28.672-11.776 22.016 0 40.448 18.432 40.448 40.448v102.912c0 11.264 4.608 21.504 11.776 28.672 7.168 7.168 17.408 11.776 28.672 11.776 19.456 0 35.328-13.824 39.424-31.744 0.512-3.072 1.024-5.632 1.024-8.704v-13.312c0-11.264 4.608-21.504 11.776-28.672 7.168-7.168 17.408-11.776 28.672-11.776 22.016 0 40.448 18.432 40.448 40.448v46.592c0 22.016 17.92 40.448 40.448 40.448h0.512c22.016 0 40.448-17.92 40.448-40.448V527.36c-1.024-9.216-7.168-18.432-13.312-23.04z" fill="#33C5FF" p-id="23172"></path><path d="M327.68 624.64m-40.448 0a40.448 40.448 0 1 0 80.896 0 40.448 40.448 0 1 0-80.896 0Z" fill="#5F4DFE" p-id="23173"></path><path d="M859.136 690.688m-40.448 0a40.448 40.448 0 1 0 80.896 0 40.448 40.448 0 1 0-80.896 0Z" fill="#5F4DFE" p-id="23174"></path><path d="M512.512 925.696m-15.872 0a15.872 15.872 0 1 0 31.744 0 15.872 15.872 0 1 0-31.744 0Z" fill="#BB32FF" p-id="23175"></path><path d="M616.96 799.232c-4.608 0-8.192 1.536-11.264 4.608-3.072 3.072-4.608 12.288-4.608 16.384v5.12c0 1.024 0 2.56-0.512 3.584-0.512 1.024-0.512 2.56-1.024 3.584h33.28v-17.408c0-8.704-7.168-15.872-15.872-15.872zM569.344 822.272v-16.384c0-8.704-7.168-15.872-15.872-15.872-4.608 0-8.192 2.048-11.264 4.608-3.072 3.072-4.608 6.656-4.608 11.264v23.04H484.352c9.728 48.128 18.432 63.488 28.16 63.488s17.92-14.848 27.648-60.416h30.72c-1.024-2.048-1.536-4.608-1.536-6.656v-3.072zM408.064 809.472c-8.704 0-15.872 7.168-15.872 15.872v6.144h31.744v-6.656c0-4.608-1.536-8.192-4.608-11.264-3.072-2.048-7.168-4.096-11.264-4.096z" fill="#BB32FF" p-id="23176"></path><path d="M664.576 794.112c0-6.144-4.096-12.288-7.68-15.36l-99.84-55.296c5.12-48.64 10.752-108.544 15.872-178.176v-1.536c-8.192 25.6-31.744 44.032-60.416 44.032-28.16 0-52.224-18.944-60.416-44.544v2.048c5.12 69.632 10.24 129.024 15.872 178.176l-99.84 55.296c-4.096 3.072-7.68 9.216-7.68 15.36v40.96c0 8.704 7.168 15.872 15.872 15.872 8.704 0 15.872-7.168 15.872-15.872v-9.216c0-8.704 7.168-15.872 15.872-15.872 4.608 0 8.192 2.048 11.264 4.608 3.072 3.072 4.608 6.656 4.608 11.264v36.352c0 3.072 1.024 5.632 2.048 8.192 2.56 4.608 7.68 7.68 13.824 7.68 4.096 0 8.192-1.536 11.264-4.608 2.56-2.56 4.096-5.632 4.608-9.216V844.8c0-5.12 2.56-9.728 6.144-12.288 2.56-2.048 6.144-3.584 9.728-3.584s7.168 1.536 9.728 3.584c0.512 0.512 1.024 1.024 1.536 1.024 1.536 1.536 2.56 2.56 3.072 4.608 0.512 2.048 0.512 4.096 1.536 5.632v0.512c3.584 9.728 12.8 16.384 24.064 16.384 14.336 0 25.6-11.264 25.6-25.6V806.4c0-4.608 1.536-8.192 4.608-11.264 3.072-3.072 6.656-4.608 11.264-4.608 8.704 0 15.872 7.168 15.872 15.872V825.856c0 2.56 0.512 4.608 1.536 6.656 0.512 1.536 2.048 3.072 3.072 4.096 3.072 3.072 6.656 4.608 11.264 4.608 6.144 0 11.776-3.584 14.336-9.216 0.512-1.024 1.024-2.048 1.024-3.584 0.512-1.024 0.512-2.048 0.512-3.584v-5.12c0-4.608 1.536-13.824 4.608-16.384 3.072-3.072 6.656-4.608 11.264-4.608 8.704 0 15.872 7.168 15.872 15.872v18.432c0 8.704 7.168 15.872 15.872 15.872 8.704 0 15.872-7.168 15.872-15.872v-13.312-0.512-25.088z" fill="#5F4DFE" p-id="23177"></path></svg>